<?xml version="1.0" encoding="UTF-8" standalone="no"?>
<!DOCTYPE svg PUBLIC "-//W3C//DTD SVG 1.1//EN"
 "http://www.w3.org/Graphics/SVG/1.1/DTD/svg11.dtd">
<!-- Generated by graphviz version 2.50.0 (0)
 -->
<!-- Pages: 1 -->
<svg width="348pt" height="864pt"
 viewBox="0.00 0.00 348.04 864.00" xmlns="http://www.w3.org/2000/svg" xmlns:xlink="http://www.w3.org/1999/xlink">
<g id="graph0" class="graph" transform="scale(0.64 0.64) rotate(0) translate(4 1344)">
<polygon fill="white" stroke="transparent" points="-4,4 -4,-1344 539,-1344 539,4 -4,4"/>
<!-- 2242418635120 -->
<g id="node1" class="node">
<title>2242418635120</title>
<polygon fill="#caff70" stroke="black" points="386,-31 303,-31 303,0 386,0 386,-31"/>
<text text-anchor="middle" x="344.5" y="-7" font-family="monospace" font-size="10.00"> (4039, 64)</text>
</g>
<!-- 2242418811440 -->
<g id="node2" class="node">
<title>2242418811440</title>
<polygon fill="lightgrey" stroke="black" points="389,-108 300,-108 300,-67 389,-67 389,-108"/>
<text text-anchor="middle" x="344.5" y="-96" font-family="monospace" font-size="10.00">AddBackward0</text>
<text text-anchor="middle" x="344.5" y="-85" font-family="monospace" font-size="10.00">&#45;&#45;&#45;&#45;&#45;&#45;&#45;&#45;&#45;&#45;&#45;&#45;</text>
<text text-anchor="middle" x="344.5" y="-74" font-family="monospace" font-size="10.00">alpha: 1</text>
</g>
<!-- 2242418811440&#45;&gt;2242418635120 -->
<g id="edge33" class="edge">
<title>2242418811440&#45;&gt;2242418635120</title>
<path fill="none" stroke="black" d="M344.5,-66.63C344.5,-58.76 344.5,-49.63 344.5,-41.33"/>
<polygon fill="black" stroke="black" points="348,-41.08 344.5,-31.08 341,-41.08 348,-41.08"/>
</g>
<!-- 2242418804864 -->
<g id="node3" class="node">
<title>2242418804864</title>
<polygon fill="lightgrey" stroke="black" points="242,-196 99,-196 99,-144 242,-144 242,-196"/>
<text text-anchor="middle" x="170.5" y="-184" font-family="monospace" font-size="10.00">ScatterAddBackward0</text>
<text text-anchor="middle" x="170.5" y="-173" font-family="monospace" font-size="10.00">&#45;&#45;&#45;&#45;&#45;&#45;&#45;&#45;&#45;&#45;&#45;&#45;&#45;&#45;&#45;&#45;&#45;&#45;&#45;&#45;&#45;</text>
<text text-anchor="middle" x="170.5" y="-162" font-family="monospace" font-size="10.00">dim &#160;: &#160;&#160;&#160;&#160;&#160;&#160;&#160;&#160;&#160;&#160;&#160;&#160;&#160;0</text>
<text text-anchor="middle" x="170.5" y="-151" font-family="monospace" font-size="10.00">index: [saved tensor]</text>
</g>
<!-- 2242418804864&#45;&gt;2242418811440 -->
<g id="edge1" class="edge">
<title>2242418804864&#45;&gt;2242418811440</title>
<path fill="none" stroke="black" d="M224.6,-143.97C246.41,-133.88 271.46,-122.29 293,-112.32"/>
<polygon fill="black" stroke="black" points="294.71,-115.39 302.32,-108.02 291.77,-109.04 294.71,-115.39"/>
</g>
<!-- 2242418628496 -->
<g id="node4" class="node">
<title>2242418628496</title>
<polygon fill="orange" stroke="black" points="215,-102.5 126,-102.5 126,-72.5 215,-72.5 215,-102.5"/>
<text text-anchor="middle" x="170.5" y="-90.5" font-family="monospace" font-size="10.00">index</text>
<text text-anchor="middle" x="170.5" y="-79.5" font-family="monospace" font-size="10.00"> (65803, 64)</text>
</g>
<!-- 2242418804864&#45;&gt;2242418628496 -->
<g id="edge2" class="edge">
<title>2242418804864&#45;&gt;2242418628496</title>
<path fill="none" stroke="black" d="M170.5,-143.97C170.5,-130.49 170.5,-114.35 170.5,-102.96"/>
</g>
<!-- 2242418804192 -->
<g id="node5" class="node">
<title>2242418804192</title>
<polygon fill="lightgrey" stroke="black" points="257,-284 114,-284 114,-232 257,-232 257,-284"/>
<text text-anchor="middle" x="185.5" y="-272" font-family="monospace" font-size="10.00">MulBackward0</text>
<text text-anchor="middle" x="185.5" y="-261" font-family="monospace" font-size="10.00">&#45;&#45;&#45;&#45;&#45;&#45;&#45;&#45;&#45;&#45;&#45;&#45;&#45;&#45;&#45;&#45;&#45;&#45;&#45;&#45;&#45;</text>
<text text-anchor="middle" x="185.5" y="-250" font-family="monospace" font-size="10.00">other: &#160;&#160;&#160;&#160;&#160;&#160;&#160;&#160;&#160;&#160;None</text>
<text text-anchor="middle" x="185.5" y="-239" font-family="monospace" font-size="10.00">self : [saved tensor]</text>
</g>
<!-- 2242418804192&#45;&gt;2242418804864 -->
<g id="edge3" class="edge">
<title>2242418804192&#45;&gt;2242418804864</title>
<path fill="none" stroke="black" d="M181.08,-231.66C179.69,-223.7 178.13,-214.76 176.65,-206.24"/>
<polygon fill="black" stroke="black" points="180.05,-205.41 174.89,-196.16 173.16,-206.61 180.05,-205.41"/>
</g>
<!-- 2242418630128 -->
<g id="node6" class="node">
<title>2242418630128</title>
<polygon fill="orange" stroke="black" points="343,-185 260,-185 260,-155 343,-155 343,-185"/>
<text text-anchor="middle" x="301.5" y="-173" font-family="monospace" font-size="10.00">self</text>
<text text-anchor="middle" x="301.5" y="-162" font-family="monospace" font-size="10.00"> (65803, 1)</text>
</g>
<!-- 2242418804192&#45;&gt;2242418630128 -->
<g id="edge4" class="edge">
<title>2242418804192&#45;&gt;2242418630128</title>
<path fill="none" stroke="black" d="M219.36,-231.89C239.96,-216.62 265.5,-197.69 282.58,-185.03"/>
</g>
<!-- 2242418805248 -->
<g id="node7" class="node">
<title>2242418805248</title>
<polygon fill="lightgrey" stroke="black" points="345,-383 148,-383 148,-320 345,-320 345,-383"/>
<text text-anchor="middle" x="246.5" y="-371" font-family="monospace" font-size="10.00">IndexSelectBackward0</text>
<text text-anchor="middle" x="246.5" y="-360" font-family="monospace" font-size="10.00">&#45;&#45;&#45;&#45;&#45;&#45;&#45;&#45;&#45;&#45;&#45;&#45;&#45;&#45;&#45;&#45;&#45;&#45;&#45;&#45;&#45;&#45;&#45;&#45;&#45;&#45;&#45;&#45;&#45;&#45;</text>
<text text-anchor="middle" x="246.5" y="-349" font-family="monospace" font-size="10.00">dim &#160;&#160;&#160;&#160;&#160;&#160;&#160;&#160;&#160;&#160;: &#160;&#160;&#160;&#160;4294967294</text>
<text text-anchor="middle" x="246.5" y="-338" font-family="monospace" font-size="10.00">index &#160;&#160;&#160;&#160;&#160;&#160;&#160;&#160;: [saved tensor]</text>
<text text-anchor="middle" x="246.5" y="-327" font-family="monospace" font-size="10.00">self_sym_sizes: &#160;&#160;&#160;&#160;(4039, 64)</text>
</g>
<!-- 2242418805248&#45;&gt;2242418804192 -->
<g id="edge5" class="edge">
<title>2242418805248&#45;&gt;2242418804192</title>
<path fill="none" stroke="black" d="M226.02,-319.78C220.14,-310.96 213.71,-301.31 207.73,-292.35"/>
<polygon fill="black" stroke="black" points="210.64,-290.4 202.18,-284.02 204.81,-294.28 210.64,-290.4"/>
</g>
<!-- 2242418631568 -->
<g id="node8" class="node">
<title>2242418631568</title>
<polygon fill="orange" stroke="black" points="340,-273 275,-273 275,-243 340,-243 340,-273"/>
<text text-anchor="middle" x="307.5" y="-261" font-family="monospace" font-size="10.00">index</text>
<text text-anchor="middle" x="307.5" y="-250" font-family="monospace" font-size="10.00"> (65803)</text>
</g>
<!-- 2242418805248&#45;&gt;2242418631568 -->
<g id="edge6" class="edge">
<title>2242418805248&#45;&gt;2242418631568</title>
<path fill="none" stroke="black" d="M266.98,-319.78C277.5,-303.99 289.82,-285.53 298.08,-273.13"/>
</g>
<!-- 2242418803040 -->
<g id="node9" class="node">
<title>2242418803040</title>
<polygon fill="lightgrey" stroke="black" points="503,-515 294,-515 294,-419 503,-419 503,-515"/>
<text text-anchor="middle" x="398.5" y="-503" font-family="monospace" font-size="10.00">MmBackward0</text>
<text text-anchor="middle" x="398.5" y="-492" font-family="monospace" font-size="10.00">&#45;&#45;&#45;&#45;&#45;&#45;&#45;&#45;&#45;&#45;&#45;&#45;&#45;&#45;&#45;&#45;&#45;&#45;&#45;&#45;&#45;&#45;&#45;&#45;&#45;&#45;&#45;&#45;&#45;&#45;&#45;&#45;</text>
<text text-anchor="middle" x="398.5" y="-481" font-family="monospace" font-size="10.00">mat2 &#160;&#160;&#160;&#160;&#160;&#160;&#160;&#160;&#160;&#160;&#160;: [saved tensor]</text>
<text text-anchor="middle" x="398.5" y="-470" font-family="monospace" font-size="10.00">mat2_sym_sizes &#160;: &#160;&#160;&#160;&#160;&#160;&#160;(64, 64)</text>
<text text-anchor="middle" x="398.5" y="-459" font-family="monospace" font-size="10.00">mat2_sym_strides: &#160;&#160;&#160;&#160;&#160;&#160;&#160;(1, 64)</text>
<text text-anchor="middle" x="398.5" y="-448" font-family="monospace" font-size="10.00">self &#160;&#160;&#160;&#160;&#160;&#160;&#160;&#160;&#160;&#160;&#160;: [saved tensor]</text>
<text text-anchor="middle" x="398.5" y="-437" font-family="monospace" font-size="10.00">self_sym_sizes &#160;: &#160;&#160;&#160;&#160;(4039, 64)</text>
<text text-anchor="middle" x="398.5" y="-426" font-family="monospace" font-size="10.00">self_sym_strides: &#160;&#160;&#160;&#160;&#160;&#160;&#160;(64, 1)</text>
</g>
<!-- 2242418803040&#45;&gt;2242418805248 -->
<g id="edge7" class="edge">
<title>2242418803040&#45;&gt;2242418805248</title>
<path fill="none" stroke="black" d="M335.36,-418.85C322.11,-408.96 308.33,-398.67 295.68,-389.22"/>
<polygon fill="black" stroke="black" points="297.65,-386.33 287.55,-383.15 293.47,-391.94 297.65,-386.33"/>
</g>
<!-- 2242418632336 -->
<g id="node10" class="node">
<title>2242418632336</title>
<polygon fill="orange" stroke="black" points="434,-366.5 363,-366.5 363,-336.5 434,-336.5 434,-366.5"/>
<text text-anchor="middle" x="398.5" y="-354.5" font-family="monospace" font-size="10.00">mat2</text>
<text text-anchor="middle" x="398.5" y="-343.5" font-family="monospace" font-size="10.00"> (64, 64)</text>
</g>
<!-- 2242418803040&#45;&gt;2242418632336 -->
<g id="edge8" class="edge">
<title>2242418803040&#45;&gt;2242418632336</title>
<path fill="none" stroke="black" d="M398.5,-418.85C398.5,-399.97 398.5,-379.63 398.5,-366.52"/>
</g>
<!-- 2242418637520 -->
<g id="node11" class="node">
<title>2242418637520</title>
<polygon fill="orange" stroke="black" points="535,-366.5 452,-366.5 452,-336.5 535,-336.5 535,-366.5"/>
<text text-anchor="middle" x="493.5" y="-354.5" font-family="monospace" font-size="10.00">self</text>
<text text-anchor="middle" x="493.5" y="-343.5" font-family="monospace" font-size="10.00"> (4039, 64)</text>
</g>
<!-- 2242418803040&#45;&gt;2242418637520 -->
<g id="edge9" class="edge">
<title>2242418803040&#45;&gt;2242418637520</title>
<path fill="none" stroke="black" d="M437.96,-418.85C453.77,-399.97 470.79,-379.63 481.77,-366.52"/>
</g>
<!-- 2242418802992 -->
<g id="node12" class="node">
<title>2242418802992</title>
<polygon fill="lightgrey" stroke="black" points="274,-603 131,-603 131,-551 274,-551 274,-603"/>
<text text-anchor="middle" x="202.5" y="-591" font-family="monospace" font-size="10.00">MulBackward0</text>
<text text-anchor="middle" x="202.5" y="-580" font-family="monospace" font-size="10.00">&#45;&#45;&#45;&#45;&#45;&#45;&#45;&#45;&#45;&#45;&#45;&#45;&#45;&#45;&#45;&#45;&#45;&#45;&#45;&#45;&#45;</text>
<text text-anchor="middle" x="202.5" y="-569" font-family="monospace" font-size="10.00">other: [saved tensor]</text>
<text text-anchor="middle" x="202.5" y="-558" font-family="monospace" font-size="10.00">self : &#160;&#160;&#160;&#160;&#160;&#160;&#160;&#160;&#160;&#160;None</text>
</g>
<!-- 2242418802992&#45;&gt;2242418803040 -->
<g id="edge10" class="edge">
<title>2242418802992&#45;&gt;2242418803040</title>
<path fill="none" stroke="black" d="M247.96,-550.95C264.73,-541.71 284.41,-530.86 303.92,-520.12"/>
<polygon fill="black" stroke="black" points="305.78,-523.09 312.85,-515.19 302.4,-516.95 305.78,-523.09"/>
</g>
<!-- 2242418628784 -->
<g id="node13" class="node">
<title>2242418628784</title>
<polygon fill="orange" stroke="black" points="244,-482 161,-482 161,-452 244,-452 244,-482"/>
<text text-anchor="middle" x="202.5" y="-470" font-family="monospace" font-size="10.00">other</text>
<text text-anchor="middle" x="202.5" y="-459" font-family="monospace" font-size="10.00"> (4039, 64)</text>
</g>
<!-- 2242418802992&#45;&gt;2242418628784 -->
<g id="edge11" class="edge">
<title>2242418802992&#45;&gt;2242418628784</title>
<path fill="none" stroke="black" d="M202.5,-550.95C202.5,-529.52 202.5,-499.44 202.5,-482.01"/>
</g>
<!-- 2242418817632 -->
<g id="node14" class="node">
<title>2242418817632</title>
<polygon fill="lightgrey" stroke="black" points="320,-680 171,-680 171,-639 320,-639 320,-680"/>
<text text-anchor="middle" x="245.5" y="-668" font-family="monospace" font-size="10.00">ReluBackward0</text>
<text text-anchor="middle" x="245.5" y="-657" font-family="monospace" font-size="10.00">&#45;&#45;&#45;&#45;&#45;&#45;&#45;&#45;&#45;&#45;&#45;&#45;&#45;&#45;&#45;&#45;&#45;&#45;&#45;&#45;&#45;&#45;</text>
<text text-anchor="middle" x="245.5" y="-646" font-family="monospace" font-size="10.00">result: [saved tensor]</text>
</g>
<!-- 2242418817632&#45;&gt;2242418802992 -->
<g id="edge12" class="edge">
<title>2242418817632&#45;&gt;2242418802992</title>
<path fill="none" stroke="black" d="M234.87,-638.6C230.58,-630.57 225.51,-621.07 220.66,-612.01"/>
<polygon fill="black" stroke="black" points="223.74,-610.33 215.94,-603.16 217.56,-613.62 223.74,-610.33"/>
</g>
<!-- 2242418629648 -->
<g id="node15" class="node">
<title>2242418629648</title>
<polygon fill="orange" stroke="black" points="375,-592 292,-592 292,-562 375,-562 375,-592"/>
<text text-anchor="middle" x="333.5" y="-580" font-family="monospace" font-size="10.00">result</text>
<text text-anchor="middle" x="333.5" y="-569" font-family="monospace" font-size="10.00"> (4039, 64)</text>
</g>
<!-- 2242418817632&#45;&gt;2242418629648 -->
<g id="edge13" class="edge">
<title>2242418817632&#45;&gt;2242418629648</title>
<path fill="none" stroke="black" d="M267.25,-638.6C283.03,-624.17 303.99,-605 318.07,-592.12"/>
</g>
<!-- 2242418817728 -->
<g id="node16" class="node">
<title>2242418817728</title>
<polygon fill="lightgrey" stroke="black" points="290,-757 201,-757 201,-716 290,-716 290,-757"/>
<text text-anchor="middle" x="245.5" y="-745" font-family="monospace" font-size="10.00">AddBackward0</text>
<text text-anchor="middle" x="245.5" y="-734" font-family="monospace" font-size="10.00">&#45;&#45;&#45;&#45;&#45;&#45;&#45;&#45;&#45;&#45;&#45;&#45;</text>
<text text-anchor="middle" x="245.5" y="-723" font-family="monospace" font-size="10.00">alpha: 1</text>
</g>
<!-- 2242418817728&#45;&gt;2242418817632 -->
<g id="edge14" class="edge">
<title>2242418817728&#45;&gt;2242418817632</title>
<path fill="none" stroke="black" d="M245.5,-715.79C245.5,-707.96 245.5,-698.77 245.5,-690.16"/>
<polygon fill="black" stroke="black" points="249,-690.07 245.5,-680.07 242,-690.07 249,-690.07"/>
</g>
<!-- 2242418816816 -->
<g id="node17" class="node">
<title>2242418816816</title>
<polygon fill="lightgrey" stroke="black" points="143,-845 0,-845 0,-793 143,-793 143,-845"/>
<text text-anchor="middle" x="71.5" y="-833" font-family="monospace" font-size="10.00">ScatterAddBackward0</text>
<text text-anchor="middle" x="71.5" y="-822" font-family="monospace" font-size="10.00">&#45;&#45;&#45;&#45;&#45;&#45;&#45;&#45;&#45;&#45;&#45;&#45;&#45;&#45;&#45;&#45;&#45;&#45;&#45;&#45;&#45;</text>
<text text-anchor="middle" x="71.5" y="-811" font-family="monospace" font-size="10.00">dim &#160;: &#160;&#160;&#160;&#160;&#160;&#160;&#160;&#160;&#160;&#160;&#160;&#160;&#160;0</text>
<text text-anchor="middle" x="71.5" y="-800" font-family="monospace" font-size="10.00">index: [saved tensor]</text>
</g>
<!-- 2242418816816&#45;&gt;2242418817728 -->
<g id="edge15" class="edge">
<title>2242418816816&#45;&gt;2242418817728</title>
<path fill="none" stroke="black" d="M125.6,-792.97C147.41,-782.88 172.46,-771.29 194,-761.32"/>
<polygon fill="black" stroke="black" points="195.71,-764.39 203.32,-757.02 192.77,-758.04 195.71,-764.39"/>
</g>
<!-- 2242418628592 -->
<g id="node18" class="node">
<title>2242418628592</title>
<polygon fill="orange" stroke="black" points="116,-751.5 27,-751.5 27,-721.5 116,-721.5 116,-751.5"/>
<text text-anchor="middle" x="71.5" y="-739.5" font-family="monospace" font-size="10.00">index</text>
<text text-anchor="middle" x="71.5" y="-728.5" font-family="monospace" font-size="10.00"> (65803, 64)</text>
</g>
<!-- 2242418816816&#45;&gt;2242418628592 -->
<g id="edge16" class="edge">
<title>2242418816816&#45;&gt;2242418628592</title>
<path fill="none" stroke="black" d="M71.5,-792.97C71.5,-779.49 71.5,-763.35 71.5,-751.96"/>
</g>
<!-- 2242418817392 -->
<g id="node19" class="node">
<title>2242418817392</title>
<polygon fill="lightgrey" stroke="black" points="158,-933 15,-933 15,-881 158,-881 158,-933"/>
<text text-anchor="middle" x="86.5" y="-921" font-family="monospace" font-size="10.00">MulBackward0</text>
<text text-anchor="middle" x="86.5" y="-910" font-family="monospace" font-size="10.00">&#45;&#45;&#45;&#45;&#45;&#45;&#45;&#45;&#45;&#45;&#45;&#45;&#45;&#45;&#45;&#45;&#45;&#45;&#45;&#45;&#45;</text>
<text text-anchor="middle" x="86.5" y="-899" font-family="monospace" font-size="10.00">other: &#160;&#160;&#160;&#160;&#160;&#160;&#160;&#160;&#160;&#160;None</text>
<text text-anchor="middle" x="86.5" y="-888" font-family="monospace" font-size="10.00">self : [saved tensor]</text>
</g>
<!-- 2242418817392&#45;&gt;2242418816816 -->
<g id="edge17" class="edge">
<title>2242418817392&#45;&gt;2242418816816</title>
<path fill="none" stroke="black" d="M82.08,-880.66C80.69,-872.7 79.13,-863.76 77.65,-855.24"/>
<polygon fill="black" stroke="black" points="81.05,-854.41 75.89,-845.16 74.16,-855.61 81.05,-854.41"/>
</g>
<!-- 2242418631760 -->
<g id="node20" class="node">
<title>2242418631760</title>
<polygon fill="orange" stroke="black" points="244,-834 161,-834 161,-804 244,-804 244,-834"/>
<text text-anchor="middle" x="202.5" y="-822" font-family="monospace" font-size="10.00">self</text>
<text text-anchor="middle" x="202.5" y="-811" font-family="monospace" font-size="10.00"> (65803, 1)</text>
</g>
<!-- 2242418817392&#45;&gt;2242418631760 -->
<g id="edge18" class="edge">
<title>2242418817392&#45;&gt;2242418631760</title>
<path fill="none" stroke="black" d="M120.36,-880.89C140.96,-865.62 166.5,-846.69 183.58,-834.03"/>
</g>
<!-- 2242418817008 -->
<g id="node21" class="node">
<title>2242418817008</title>
<polygon fill="lightgrey" stroke="black" points="246,-1032 49,-1032 49,-969 246,-969 246,-1032"/>
<text text-anchor="middle" x="147.5" y="-1020" font-family="monospace" font-size="10.00">IndexSelectBackward0</text>
<text text-anchor="middle" x="147.5" y="-1009" font-family="monospace" font-size="10.00">&#45;&#45;&#45;&#45;&#45;&#45;&#45;&#45;&#45;&#45;&#45;&#45;&#45;&#45;&#45;&#45;&#45;&#45;&#45;&#45;&#45;&#45;&#45;&#45;&#45;&#45;&#45;&#45;&#45;&#45;</text>
<text text-anchor="middle" x="147.5" y="-998" font-family="monospace" font-size="10.00">dim &#160;&#160;&#160;&#160;&#160;&#160;&#160;&#160;&#160;&#160;: &#160;&#160;&#160;&#160;4294967294</text>
<text text-anchor="middle" x="147.5" y="-987" font-family="monospace" font-size="10.00">index &#160;&#160;&#160;&#160;&#160;&#160;&#160;&#160;: [saved tensor]</text>
<text text-anchor="middle" x="147.5" y="-976" font-family="monospace" font-size="10.00">self_sym_sizes: &#160;&#160;&#160;&#160;(4039, 64)</text>
</g>
<!-- 2242418817008&#45;&gt;2242418817392 -->
<g id="edge19" class="edge">
<title>2242418817008&#45;&gt;2242418817392</title>
<path fill="none" stroke="black" d="M127.02,-968.78C121.14,-959.96 114.71,-950.31 108.73,-941.35"/>
<polygon fill="black" stroke="black" points="111.64,-939.4 103.18,-933.02 105.81,-943.28 111.64,-939.4"/>
</g>
<!-- 2242418945360 -->
<g id="node22" class="node">
<title>2242418945360</title>
<polygon fill="orange" stroke="black" points="241,-922 176,-922 176,-892 241,-892 241,-922"/>
<text text-anchor="middle" x="208.5" y="-910" font-family="monospace" font-size="10.00">index</text>
<text text-anchor="middle" x="208.5" y="-899" font-family="monospace" font-size="10.00"> (65803)</text>
</g>
<!-- 2242418817008&#45;&gt;2242418945360 -->
<g id="edge20" class="edge">
<title>2242418817008&#45;&gt;2242418945360</title>
<path fill="none" stroke="black" d="M167.98,-968.78C178.5,-952.99 190.82,-934.53 199.08,-922.13"/>
</g>
<!-- 2242418804720 -->
<g id="node23" class="node">
<title>2242418804720</title>
<polygon fill="lightgrey" stroke="black" points="334,-1164 125,-1164 125,-1068 334,-1068 334,-1164"/>
<text text-anchor="middle" x="229.5" y="-1152" font-family="monospace" font-size="10.00">MmBackward0</text>
<text text-anchor="middle" x="229.5" y="-1141" font-family="monospace" font-size="10.00">&#45;&#45;&#45;&#45;&#45;&#45;&#45;&#45;&#45;&#45;&#45;&#45;&#45;&#45;&#45;&#45;&#45;&#45;&#45;&#45;&#45;&#45;&#45;&#45;&#45;&#45;&#45;&#45;&#45;&#45;&#45;&#45;</text>
<text text-anchor="middle" x="229.5" y="-1130" font-family="monospace" font-size="10.00">mat2 &#160;&#160;&#160;&#160;&#160;&#160;&#160;&#160;&#160;&#160;&#160;: &#160;&#160;&#160;&#160;&#160;&#160;&#160;&#160;&#160;&#160;None</text>
<text text-anchor="middle" x="229.5" y="-1119" font-family="monospace" font-size="10.00">mat2_sym_sizes &#160;: &#160;&#160;&#160;&#160;(1406, 64)</text>
<text text-anchor="middle" x="229.5" y="-1108" font-family="monospace" font-size="10.00">mat2_sym_strides: &#160;&#160;&#160;&#160;&#160;(1, 1406)</text>
<text text-anchor="middle" x="229.5" y="-1097" font-family="monospace" font-size="10.00">self &#160;&#160;&#160;&#160;&#160;&#160;&#160;&#160;&#160;&#160;&#160;: [saved tensor]</text>
<text text-anchor="middle" x="229.5" y="-1086" font-family="monospace" font-size="10.00">self_sym_sizes &#160;: &#160;&#160;(4039, 1406)</text>
<text text-anchor="middle" x="229.5" y="-1075" font-family="monospace" font-size="10.00">self_sym_strides: &#160;&#160;&#160;&#160;&#160;&#160;&#160;&#160;&#160;&#160;&#160;&#160;()</text>
</g>
<!-- 2242418804720&#45;&gt;2242418817008 -->
<g id="edge21" class="edge">
<title>2242418804720&#45;&gt;2242418817008</title>
<path fill="none" stroke="black" d="M195.44,-1067.85C188.83,-1058.71 181.98,-1049.23 175.6,-1040.39"/>
<polygon fill="black" stroke="black" points="178.34,-1038.21 169.64,-1032.15 172.66,-1042.31 178.34,-1038.21"/>
</g>
<!-- 2242305745136 -->
<g id="node24" class="node">
<title>2242305745136</title>
<polygon fill="orange" stroke="black" points="359,-1015.5 264,-1015.5 264,-985.5 359,-985.5 359,-1015.5"/>
<text text-anchor="middle" x="311.5" y="-1003.5" font-family="monospace" font-size="10.00">self</text>
<text text-anchor="middle" x="311.5" y="-992.5" font-family="monospace" font-size="10.00"> (4039, 1406)</text>
</g>
<!-- 2242418804720&#45;&gt;2242305745136 -->
<g id="edge22" class="edge">
<title>2242418804720&#45;&gt;2242305745136</title>
<path fill="none" stroke="black" d="M263.56,-1067.85C277.2,-1048.97 291.9,-1028.63 301.37,-1015.52"/>
</g>
<!-- 2242418804480 -->
<g id="node25" class="node">
<title>2242418804480</title>
<polygon fill="lightgrey" stroke="black" points="268,-1219 191,-1219 191,-1200 268,-1200 268,-1219"/>
<text text-anchor="middle" x="229.5" y="-1207" font-family="monospace" font-size="10.00">TBackward0</text>
</g>
<!-- 2242418804480&#45;&gt;2242418804720 -->
<g id="edge23" class="edge">
<title>2242418804480&#45;&gt;2242418804720</title>
<path fill="none" stroke="black" d="M229.5,-1199.73C229.5,-1193.42 229.5,-1184.31 229.5,-1174.43"/>
<polygon fill="black" stroke="black" points="233,-1174.35 229.5,-1164.35 226,-1174.35 233,-1174.35"/>
</g>
<!-- 2242416462288 -->
<g id="node26" class="node">
<title>2242416462288</title>
<polygon fill="lightgrey" stroke="black" points="280,-1274 179,-1274 179,-1255 280,-1255 280,-1274"/>
<text text-anchor="middle" x="229.5" y="-1262" font-family="monospace" font-size="10.00">AccumulateGrad</text>
</g>
<!-- 2242416462288&#45;&gt;2242418804480 -->
<g id="edge24" class="edge">
<title>2242416462288&#45;&gt;2242418804480</title>
<path fill="none" stroke="black" d="M229.5,-1254.75C229.5,-1247.8 229.5,-1237.85 229.5,-1229.13"/>
<polygon fill="black" stroke="black" points="233,-1229.09 229.5,-1219.09 226,-1229.09 233,-1229.09"/>
</g>
<!-- 2242416887376 -->
<g id="node27" class="node">
<title>2242416887376</title>
<polygon fill="lightblue" stroke="black" points="286,-1340 173,-1340 173,-1310 286,-1310 286,-1340"/>
<text text-anchor="middle" x="229.5" y="-1328" font-family="monospace" font-size="10.00">conv1.lin.weight</text>
<text text-anchor="middle" x="229.5" y="-1317" font-family="monospace" font-size="10.00"> (64, 1406)</text>
</g>
<!-- 2242416887376&#45;&gt;2242416462288 -->
<g id="edge25" class="edge">
<title>2242416887376&#45;&gt;2242416462288</title>
<path fill="none" stroke="black" d="M229.5,-1309.84C229.5,-1302.21 229.5,-1292.7 229.5,-1284.45"/>
<polygon fill="black" stroke="black" points="233,-1284.27 229.5,-1274.27 226,-1284.27 233,-1284.27"/>
</g>
<!-- 2242416462576 -->
<g id="node28" class="node">
<title>2242416462576</title>
<polygon fill="lightgrey" stroke="black" points="363,-828.5 262,-828.5 262,-809.5 363,-809.5 363,-828.5"/>
<text text-anchor="middle" x="312.5" y="-816.5" font-family="monospace" font-size="10.00">AccumulateGrad</text>
</g>
<!-- 2242416462576&#45;&gt;2242418817728 -->
<g id="edge26" class="edge">
<title>2242416462576&#45;&gt;2242418817728</title>
<path fill="none" stroke="black" d="M305.33,-809.39C296.53,-798.82 281.19,-780.39 268.25,-764.83"/>
<polygon fill="black" stroke="black" points="270.83,-762.47 261.75,-757.02 265.45,-766.94 270.83,-762.47"/>
</g>
<!-- 2242418624368 -->
<g id="node29" class="node">
<title>2242418624368</title>
<polygon fill="lightblue" stroke="black" points="351,-922 274,-922 274,-892 351,-892 351,-922"/>
<text text-anchor="middle" x="312.5" y="-910" font-family="monospace" font-size="10.00">conv1.bias</text>
<text text-anchor="middle" x="312.5" y="-899" font-family="monospace" font-size="10.00"> (64)</text>
</g>
<!-- 2242418624368&#45;&gt;2242416462576 -->
<g id="edge27" class="edge">
<title>2242418624368&#45;&gt;2242416462576</title>
<path fill="none" stroke="black" d="M312.5,-891.8C312.5,-877.36 312.5,-854.92 312.5,-838.97"/>
<polygon fill="black" stroke="black" points="316,-838.71 312.5,-828.71 309,-838.71 316,-838.71"/>
</g>
<!-- 2242418817344 -->
<g id="node30" class="node">
<title>2242418817344</title>
<polygon fill="lightgrey" stroke="black" points="470,-586.5 393,-586.5 393,-567.5 470,-567.5 470,-586.5"/>
<text text-anchor="middle" x="431.5" y="-574.5" font-family="monospace" font-size="10.00">TBackward0</text>
</g>
<!-- 2242418817344&#45;&gt;2242418803040 -->
<g id="edge28" class="edge">
<title>2242418817344&#45;&gt;2242418803040</title>
<path fill="none" stroke="black" d="M428.8,-567.16C425.87,-557.56 420.92,-541.37 415.86,-524.82"/>
<polygon fill="black" stroke="black" points="419.16,-523.62 412.89,-515.08 412.46,-525.67 419.16,-523.62"/>
</g>
<!-- 2242416467664 -->
<g id="node31" class="node">
<title>2242416467664</title>
<polygon fill="lightgrey" stroke="black" points="482,-669 381,-669 381,-650 482,-650 482,-669"/>
<text text-anchor="middle" x="431.5" y="-657" font-family="monospace" font-size="10.00">AccumulateGrad</text>
</g>
<!-- 2242416467664&#45;&gt;2242418817344 -->
<g id="edge29" class="edge">
<title>2242416467664&#45;&gt;2242418817344</title>
<path fill="none" stroke="black" d="M431.5,-649.89C431.5,-637.36 431.5,-613.8 431.5,-597.07"/>
<polygon fill="black" stroke="black" points="435,-596.8 431.5,-586.8 428,-596.8 435,-596.8"/>
</g>
<!-- 2242418624848 -->
<g id="node32" class="node">
<title>2242418624848</title>
<polygon fill="lightblue" stroke="black" points="488,-751.5 375,-751.5 375,-721.5 488,-721.5 488,-751.5"/>
<text text-anchor="middle" x="431.5" y="-739.5" font-family="monospace" font-size="10.00">conv2.lin.weight</text>
<text text-anchor="middle" x="431.5" y="-728.5" font-family="monospace" font-size="10.00"> (64, 64)</text>
</g>
<!-- 2242418624848&#45;&gt;2242416467664 -->
<g id="edge30" class="edge">
<title>2242418624848&#45;&gt;2242416467664</title>
<path fill="none" stroke="black" d="M431.5,-721.39C431.5,-709.58 431.5,-692.6 431.5,-679.58"/>
<polygon fill="black" stroke="black" points="435,-679.37 431.5,-669.37 428,-679.37 435,-679.37"/>
</g>
<!-- 2242416474048 -->
<g id="node33" class="node">
<title>2242416474048</title>
<polygon fill="lightgrey" stroke="black" points="462,-179.5 361,-179.5 361,-160.5 462,-160.5 462,-179.5"/>
<text text-anchor="middle" x="411.5" y="-167.5" font-family="monospace" font-size="10.00">AccumulateGrad</text>
</g>
<!-- 2242416474048&#45;&gt;2242418811440 -->
<g id="edge31" class="edge">
<title>2242416474048&#45;&gt;2242418811440</title>
<path fill="none" stroke="black" d="M404.33,-160.39C395.53,-149.82 380.19,-131.39 367.25,-115.83"/>
<polygon fill="black" stroke="black" points="369.83,-113.47 360.75,-108.02 364.45,-117.94 369.83,-113.47"/>
</g>
<!-- 2242418624944 -->
<g id="node34" class="node">
<title>2242418624944</title>
<polygon fill="lightblue" stroke="black" points="450,-273 373,-273 373,-243 450,-243 450,-273"/>
<text text-anchor="middle" x="411.5" y="-261" font-family="monospace" font-size="10.00">conv2.bias</text>
<text text-anchor="middle" x="411.5" y="-250" font-family="monospace" font-size="10.00"> (64)</text>
</g>
<!-- 2242418624944&#45;&gt;2242416474048 -->
<g id="edge32" class="edge">
<title>2242418624944&#45;&gt;2242416474048</title>
<path fill="none" stroke="black" d="M411.5,-242.8C411.5,-228.36 411.5,-205.92 411.5,-189.97"/>
<polygon fill="black" stroke="black" points="415,-189.71 411.5,-179.71 408,-189.71 415,-189.71"/>
</g>
</g>
</svg>
